# xmcd
#
# Track frame offsets: 
#        150
#        19708
#        40159
#        53576
#        69987
#        95144
#        111679
#        124639
#        140392
#        153799
#        170617
#        188553
#        198454
#        211101
#        231896
#        251311
#        267361
#        280428
#
# Disc length: 3944 seconds
#
# Revision: 2
# Processed by: cddbd v1.5.2PL0 Copyright (c) Steve Scherf et al.
# Submitted via: ExactAudioCopy v1.0b3
#
DISCID=fd0f6612
DTITLE=Nelson, Willie - Lost Highway - Norwegian Edition
DYEAR=2009
DGENRE=Country
TTITLE0=Nelson, Willie with Rob Thomas - Maria (Shut Up And Kiss Me)
TTITLE1=Nelson, Willie featuring Lee Ann Womack - Mendocino County Lin
TTITLE1=e
TTITLE2=Back To Earth
TTITLE3=The Harder They Come
TTITLE4=Over You Again
TTITLE5=You Don´t Know Me
TTITLE6=Nelson, Willie featuring Ray Price - Lost Highway
TTITLE7=Nelson, Willie featuring Toby Keith - Beer For My Horses
TTITLE8=Nelson, Willie featuring Shania Twain - Blue Eyes Crying In Th
TTITLE8=e Rain
TTITLE9=Nelson, Willie featuring Lucinda Williams - Overtime
TTITLE10=Nelson, Willie featuring Ray Price - I'm Still Not Over You
TTITLE11=Superman [Unreleased]
TTITLE12=Bubbles In My Beer
TTITLE13=Nelson, Willie featuring Diana Krall and Elvis Costello - Cra
TTITLE13=zy
TTITLE14=Both Sides Of Goodbye [Unreleased]
TTITLE15=Cowboys Are Frequently Secretly Fond Of Each Other [Prev iTun
TTITLE15=es Only]
TTITLE16=Ain't Goin' Down On Brokeback Mountain [Unreleased]
TTITLE17=Nelson, Willie featuring Kurt Nilsen - Lost Highway
EXTD=
EXTT0=With Rob Thomas
EXTT1=Featuring Lee Ann Womack
EXTT2=
EXTT3=
EXTT4=
EXTT5=
EXTT6=Featuring Ray Price
EXTT7=Featuring Toby Keith
EXTT8=Freaturing Shania Twain
EXTT9=Featuring Lucinda Williams
EXTT10=Featuring Ray Price
EXTT11=
EXTT12=
EXTT13=Featuring Diana Krall and Elcis Costello
EXTT14=
EXTT15=
EXTT16=
EXTT17=Featuring Kurt Nilsen
PLAYORDER=
